<?xml version="1.0" encoding="UTF-8" standalone="no"?>
<!DOCTYPE svg PUBLIC "-//W3C//DTD SVG 1.1//EN" "http://www.w3.org/Graphics/SVG/1.1/DTD/svg11.dtd">
<svg width="100%" height="100%" viewBox="0 0 634 564" version="1.1" xmlns="http://www.w3.org/2000/svg" xmlns:xlink="http://www.w3.org/1999/xlink" xml:space="preserve" xmlns:serif="http://www.serif.com/" style="fill-rule:evenodd;clip-rule:evenodd;stroke-linejoin:round;stroke-miterlimit:2;">
    <g transform="matrix(1,0,0,1,-712.91,-731.7)">
        <path d="M1119.26,981.38C1114.4,962.53 1105.38,945.37 1093.24,930.95C1069.64,902.86 1034.31,885.05 994.76,885.05C923.79,885.05 866.22,942.59 866.22,1013.59C866.22,1024.7 867.63,1035.48 870.28,1045.76C884.56,1101.2 934.91,1142.14 994.77,1142.14C1054.63,1142.14 1105.03,1101.2 1119.31,1045.76L1197,1045.76C1181.56,1143.55 1096.91,1218.33 994.77,1218.33C881.68,1218.33 790.02,1126.66 790.02,1013.58C790.02,900.5 881.69,808.83 994.77,808.83C1057.75,808.83 1114.09,837.26 1151.62,881.99L1210.7,832.41C1159.01,770.83 1081.47,731.7 994.77,731.7C839.1,731.7 712.91,857.93 712.91,1013.6C712.91,1169.27 839.1,1295.46 994.77,1295.46C1132.85,1295.46 1247.78,1196.18 1271.96,1065.1C1272.07,1064.68 1272.14,1064.28 1272.18,1063.89C1273.29,1057.93 1274.17,1051.88 1274.84,1045.77C1275.98,1036.02 1276.56,1026.09 1276.63,1016.03L1276.63,981.4L1119.27,981.4L1119.26,981.38ZM994.76,940.7C1017.18,940.7 1037.24,950.83 1050.61,966.72C1054.36,971.18 1057.61,976.11 1060.22,981.38L929.36,981.38C941.25,957.26 966.09,940.7 994.77,940.7M994.76,1086.48C966.09,1086.48 941.24,1069.88 929.35,1045.76L1060.21,1045.76C1048.32,1069.88 1023.48,1086.48 994.75,1086.48" style="fill:rgb(28,202,71);fill-rule:nonzero;"/>
        <path d="M1298.53,869.37C1299.73,867.05 1301.45,865.25 1303.69,863.96C1305.92,862.67 1308.56,862.03 1311.58,862.03C1314.18,862.03 1316.51,862.52 1318.56,863.49C1320.61,864.47 1322.28,865.85 1323.57,867.63C1324.86,869.41 1325.71,871.49 1326.14,873.87L1316.21,873.87C1315.76,872.88 1315.11,872.11 1314.28,871.56C1313.45,871.01 1312.49,870.73 1311.42,870.73C1309.84,870.73 1308.58,871.32 1307.66,872.51C1306.74,873.7 1306.28,875.3 1306.28,877.31C1306.28,879.32 1306.74,880.92 1307.66,882.11C1308.58,883.3 1309.83,883.89 1311.42,883.89C1312.49,883.89 1313.45,883.61 1314.28,883.06C1315.11,882.51 1315.76,881.74 1316.21,880.75L1326.14,880.75C1325.72,883.13 1324.86,885.21 1323.57,886.99C1322.28,888.77 1320.61,890.15 1318.56,891.13C1316.51,892.11 1314.18,892.59 1311.58,892.59C1308.55,892.59 1305.92,891.95 1303.69,890.66C1301.45,889.37 1299.73,887.57 1298.53,885.25C1297.33,882.93 1296.73,880.28 1296.73,877.31C1296.73,874.34 1297.33,871.69 1298.53,869.37" style="fill:rgb(28,202,71);fill-rule:nonzero;"/>
        <path d="M1311.43,912.12C1292.23,912.12 1276.62,896.51 1276.62,877.31C1276.62,858.11 1292.23,842.5 1311.43,842.5C1330.63,842.5 1346.24,858.12 1346.24,877.31C1346.24,896.5 1330.62,912.12 1311.43,912.12M1311.43,852.04C1297.5,852.04 1286.16,863.38 1286.16,877.31C1286.16,891.24 1297.5,902.58 1311.43,902.58C1325.36,902.58 1336.7,891.24 1336.7,877.31C1336.7,863.38 1325.36,852.04 1311.43,852.04" style="fill:rgb(28,202,71);fill-rule:nonzero;"/>
    </g>
</svg>
