<?xml version="1.0" encoding="UTF-8" standalone="no"?>
<!DOCTYPE svg PUBLIC "-//W3C//DTD SVG 1.1//EN" "http://www.w3.org/Graphics/SVG/1.1/DTD/svg11.dtd">
<svg width="100%" height="100%" viewBox="0 0 719 227" version="1.1" xmlns="http://www.w3.org/2000/svg" xmlns:xlink="http://www.w3.org/1999/xlink" xml:space="preserve" xmlns:serif="http://www.serif.com/" style="fill-rule:evenodd;clip-rule:evenodd;stroke-linejoin:round;stroke-miterlimit:2;">
    <g transform="matrix(1,0,0,1,-640.77,-971.77)">
        <path d="M731.95,1135.72C731.95,1135.72 733.86,1110.13 690.77,1110.13C647.68,1110.13 640.77,1134.54 640.77,1147.34C640.77,1160.14 648.27,1181.9 687.83,1181.9C687.83,1181.9 701.8,1182.49 710.33,1177.05L713.86,1180.14L733.86,1180.14L733.86,1140.72L694.44,1140.72L694.44,1158.22L703.71,1158.22C703.71,1158.22 701.65,1163.37 691.21,1163.37C680.77,1163.37 673.41,1156.77 673.41,1146.02C673.41,1135.27 679.59,1128.36 690.03,1128.36C700.47,1128.36 700.91,1136.01 700.91,1136.01L731.94,1135.72L731.95,1135.72Z" style="fill:rgb(28,202,71);fill-rule:nonzero;"/>
        <path d="M829.35,1111.76L829.35,1180.3L860.38,1180.3L860.38,1111.76C860.38,1111.76 829.49,1111.91 829.35,1111.76" style="fill:rgb(28,202,71);fill-rule:nonzero;"/>
        <path d="M822.13,1163.35C822.13,1153.09 812.17,1153.24 812.17,1153.24L812.17,1152.17C812.17,1152.17 823.6,1150.05 823.6,1136.81C823.6,1123.57 819.24,1111.76 798.11,1111.76L741.61,1111.76L741.61,1180.3L772.64,1180.3L772.64,1158.83L781.76,1158.83C781.76,1158.83 791.17,1158.09 791.17,1168.1C791.17,1178.11 794.11,1180.31 794.11,1180.31L827.49,1180.31C827.49,1180.31 822.12,1173.62 822.12,1163.36M790.65,1140.22L772.27,1140.22L772.27,1131.29C772.21,1131.36 783.97,1131.33 790.63,1131.31L790.65,1131.31C793.11,1131.31 795.1,1133.31 795.1,1135.77C795.1,1138.23 793.11,1140.23 790.64,1140.23" style="fill:rgb(28,202,71);fill-rule:nonzero;"/>
        <path d="M1011.74,1111.76L935.41,1111.76L935.41,1133.82L957.99,1133.82L958.06,1180.3L989.09,1180.3L989.17,1133.82L1011.74,1133.82L1011.74,1111.76Z" style="fill:rgb(28,202,71);fill-rule:nonzero;"/>
        <path d="M1060.38,1111.76L1028.31,1111.76L994.04,1180.3L1025.22,1180.3L1030.08,1169.86L1058.61,1169.86L1063.46,1180.3L1094.64,1180.3L1060.37,1111.76L1060.38,1111.76ZM1036.37,1152.52L1044.34,1135.85L1051.27,1152.52L1036.37,1152.52Z" style="fill:rgb(28,202,71);fill-rule:nonzero;"/>
        <path d="M867.37,1111.76L867.37,1180.3L890.84,1180.3L890.84,1145.15L911.3,1180.3L936.16,1180.3L936.16,1111.76L911.93,1111.76L911.93,1146.56L891.97,1111.76L867.37,1111.76Z" style="fill:rgb(28,202,71);fill-rule:nonzero;"/>
        <path d="M996.88,1018.18L996.88,985.46L1060.48,985.46C1070.84,985.46 1080.72,997.26 1080.72,1005.55L1080.72,1067.5L978.5,1067.5C972.64,1067.5 968.3,1067.57 968.3,1062.48L968.3,1046.8L945.26,1046.8L945.26,1060.97C945.26,1068.33 943,1075.56 938.54,1081.42C932.85,1088.9 919.94,1096.11 900.79,1096.11L900.79,1071C900.79,1071 921.95,1074.65 921.95,1047.71L921.95,1020.16L984.78,1020.16L984.78,1035.91L1057.29,1035.91L1048.01,1007.07L1019.79,1007.07L1019.79,1018.03L996.88,1018.18Z" style="fill:rgb(28,202,71);fill-rule:nonzero;"/>
        <path d="M893.21,1019.94L893.21,1067.2L827.8,1067.2L827.8,1057.07L825.8,1057.07C825.8,1058.51 826.97,1067.2 813.07,1067.2L755.37,1067.2L755.37,1057.11L753.41,1057.11C753.41,1058.21 754.76,1067.2 739.07,1067.2L645.45,1067.2L645.45,982.15L674.48,982.15L674.48,1035.35L727.72,1035.35L727.72,1020.05L754.26,1020.05L754.26,1035.86L801.45,1035.86L801.45,1019.82L826.1,1019.82L826.1,1035.8L860.79,1035.8C860.79,1035.8 866.04,1035.4 866.04,1039.4L867.35,1039.4L867.35,1020.11C867.35,1020.11 893.19,1019.79 893.19,1019.95" style="fill:rgb(28,202,71);fill-rule:nonzero;"/>
        <path d="M740.22,995.35C740.22,995.35 737.89,988.68 729.17,988.68C720.45,988.68 716.54,995.93 716.54,1001.64C716.54,1007.35 722.08,1013.56 728.38,1013.56C734.68,1013.56 739.76,1008.39 739.76,1006.68L739.76,1003.47L740.84,1003.47L740.84,1006.93C740.84,1006.93 743.3,1013.56 751.51,1013.56C759.72,1013.56 764.18,1006.89 764.18,1001.12C764.18,995.35 759.47,988.68 751.59,988.68C743.71,988.68 740.21,995.35 740.21,995.35" style="fill:rgb(28,202,71);fill-rule:nonzero;"/>
        <path d="M874.36,1079.93C874.36,1079.93 872.29,1074.01 864.55,1074.01C856.81,1074.01 853.33,1080.45 853.33,1085.53C853.33,1090.61 858.26,1096.12 863.85,1096.12C869.44,1096.12 873.96,1091.53 873.96,1090.01L873.96,1087.16L874.92,1087.16L874.92,1090.23C874.92,1090.23 877.1,1096.12 884.4,1096.12C891.7,1096.12 895.66,1090.2 895.66,1085.07C895.66,1079.94 891.48,1074.02 884.48,1074.02C877.48,1074.02 874.37,1079.94 874.37,1079.94" style="fill:rgb(28,202,71);fill-rule:nonzero;"/>
        <path d="M826.64,1001.13C826.64,1008.22 820.9,1013.96 813.81,1013.96C806.72,1013.96 800.98,1008.22 800.98,1001.13C800.98,994.04 806.72,988.3 813.81,988.3C820.9,988.3 826.64,994.04 826.64,1001.13" style="fill:rgb(28,202,71);fill-rule:nonzero;"/>
        <path d="M1057.29,1086.45C1057.29,1093.32 1051.72,1098.89 1044.85,1098.89C1037.98,1098.89 1032.41,1093.32 1032.41,1086.45C1032.41,1079.58 1037.98,1074.01 1044.85,1074.01C1051.72,1074.01 1057.29,1079.58 1057.29,1086.45" style="fill:rgb(28,202,71);fill-rule:nonzero;"/>
        <path d="M1268.01,1072.13C1266.06,1064.56 1262.43,1057.66 1257.55,1051.86C1248.07,1040.57 1233.86,1033.41 1217.97,1033.41C1189.45,1033.41 1166.31,1056.53 1166.31,1085.07C1166.31,1089.53 1166.88,1093.87 1167.94,1098C1173.68,1120.28 1193.91,1136.73 1217.97,1136.73C1242.03,1136.73 1262.28,1120.28 1268.02,1098L1299.24,1098C1293.03,1137.3 1259.01,1167.35 1217.97,1167.35C1172.52,1167.35 1135.68,1130.51 1135.68,1085.06C1135.68,1039.61 1172.52,1002.77 1217.97,1002.77C1243.28,1002.77 1265.92,1014.2 1281.01,1032.17L1304.75,1012.24C1283.98,987.49 1252.81,971.77 1217.97,971.77C1155.41,971.77 1104.69,1022.5 1104.69,1085.06C1104.69,1147.62 1155.4,1198.34 1217.97,1198.34C1273.46,1198.34 1319.65,1158.44 1329.37,1105.76C1329.41,1105.59 1329.44,1105.43 1329.46,1105.27C1329.9,1102.87 1330.26,1100.44 1330.53,1097.99C1330.99,1094.07 1331.22,1090.08 1331.25,1086.04L1331.25,1072.12L1268.01,1072.12L1268.01,1072.13ZM1217.98,1055.77C1226.99,1055.77 1235.05,1059.84 1240.43,1066.23C1241.94,1068.02 1243.24,1070 1244.29,1072.12L1191.7,1072.12C1196.48,1062.42 1206.46,1055.77 1217.99,1055.77M1217.98,1114.36C1206.46,1114.36 1196.47,1107.69 1191.69,1097.99L1244.28,1097.99C1239.5,1107.68 1229.52,1114.36 1217.97,1114.36" style="fill:rgb(28,202,71);fill-rule:nonzero;"/>
        <path d="M1340.06,1027.11C1340.54,1026.18 1341.23,1025.45 1342.13,1024.94C1343.03,1024.42 1344.08,1024.16 1345.3,1024.16C1346.35,1024.16 1347.28,1024.36 1348.11,1024.75C1348.94,1025.14 1349.61,1025.7 1350.12,1026.41C1350.64,1027.13 1350.98,1027.96 1351.15,1028.92L1347.16,1028.92C1346.98,1028.52 1346.72,1028.21 1346.38,1027.99C1346.05,1027.77 1345.66,1027.66 1345.23,1027.66C1344.59,1027.66 1344.09,1027.9 1343.72,1028.38C1343.35,1028.86 1343.17,1029.5 1343.17,1030.31C1343.17,1031.12 1343.35,1031.76 1343.72,1032.24C1344.09,1032.72 1344.59,1032.96 1345.23,1032.96C1345.66,1032.96 1346.05,1032.85 1346.38,1032.63C1346.72,1032.41 1346.98,1032.1 1347.16,1031.7L1351.15,1031.7C1350.98,1032.65 1350.64,1033.49 1350.12,1034.21C1349.6,1034.93 1348.93,1035.48 1348.11,1035.87C1347.29,1036.26 1346.35,1036.46 1345.3,1036.46C1344.08,1036.46 1343.03,1036.2 1342.13,1035.68C1341.23,1035.16 1340.54,1034.44 1340.06,1033.5C1339.58,1032.57 1339.33,1031.5 1339.33,1030.31C1339.33,1029.12 1339.57,1028.05 1340.06,1027.12" style="fill:rgb(28,202,71);fill-rule:nonzero;"/>
        <path d="M1345.24,1044.29C1337.53,1044.29 1331.25,1038.02 1331.25,1030.3C1331.25,1022.58 1337.53,1016.31 1345.24,1016.31C1352.95,1016.31 1359.23,1022.59 1359.23,1030.3C1359.23,1038.01 1352.95,1044.29 1345.24,1044.29M1345.24,1020.14C1339.64,1020.14 1335.08,1024.7 1335.08,1030.3C1335.08,1035.9 1339.63,1040.46 1345.24,1040.46C1350.85,1040.46 1355.39,1035.9 1355.39,1030.3C1355.39,1024.7 1350.84,1020.14 1345.24,1020.14" style="fill:rgb(28,202,71);fill-rule:nonzero;"/>
    </g>
</svg>
